<mxfile host="Electron" modified="2023-05-11T09:44:34.507Z" agent="Mozilla/5.0 (Windows NT 10.0; Win64; x64) AppleWebKit/537.36 (KHTML, like Gecko) draw.io/21.2.8 Chrome/112.0.5615.165 Electron/24.2.0 Safari/537.36" etag="eIEdUacH0hqnlkfEcJNX" version="21.2.8" type="device">
  <diagram name="Page-1" id="SFD5FbLWe2inRmjffrm_">
    <mxGraphModel dx="1050" dy="621" grid="1" gridSize="10" guides="1" tooltips="1" connect="1" arrows="1" fold="1" page="1" pageScale="1" pageWidth="850" pageHeight="1100" math="0" shadow="0">
      <root>
        <mxCell id="0" />
        <mxCell id="1" parent="0" />
        <mxCell id="dXeJd9fdskiibIoUs9Um-12" value="&lt;font style=&quot;&quot;&gt;&lt;i style=&quot;font-size: 13px;&quot;&gt;&amp;lt;&amp;lt;HttpServlet&amp;gt;&amp;gt;&lt;/i&gt;&lt;br&gt;&lt;span style=&quot;font-size: 15px;&quot;&gt;&lt;b&gt;auctionOffer&lt;/b&gt;&lt;/span&gt;&lt;br&gt;&lt;/font&gt;" style="shape=parallelogram;perimeter=parallelogramPerimeter;whiteSpace=wrap;html=1;fixedSize=1;strokeColor=#FF00FF;strokeWidth=2;" parent="1" vertex="1">
          <mxGeometry x="480" y="504" width="140" height="60" as="geometry" />
        </mxCell>
        <mxCell id="dXeJd9fdskiibIoUs9Um-21" value="" style="group" parent="1" vertex="1" connectable="0">
          <mxGeometry x="710" y="490" width="150" height="100" as="geometry" />
        </mxCell>
        <mxCell id="dXeJd9fdskiibIoUs9Um-19" value="" style="whiteSpace=wrap;html=1;strokeWidth=3;strokeColor=#009900;" parent="dXeJd9fdskiibIoUs9Um-21" vertex="1">
          <mxGeometry width="150" height="100" as="geometry" />
        </mxCell>
        <mxCell id="dXeJd9fdskiibIoUs9Um-20" value="&lt;font size=&quot;1&quot; color=&quot;#009900&quot; style=&quot;&quot;&gt;&lt;b style=&quot;font-size: 20px;&quot;&gt;auctionOffer&lt;/b&gt;&lt;/font&gt;" style="text;html=1;strokeColor=none;fillColor=none;align=left;verticalAlign=middle;whiteSpace=wrap;rounded=0;" parent="dXeJd9fdskiibIoUs9Um-21" vertex="1">
          <mxGeometry x="5" y="5" width="60" height="30" as="geometry" />
        </mxCell>
        <mxCell id="dXeJd9fdskiibIoUs9Um-22" value="" style="endArrow=none;html=1;rounded=0;strokeColor=#6666FF;strokeWidth=2;startArrow=classic;startFill=1;entryX=1;entryY=0.5;entryDx=0;entryDy=0;" parent="1" edge="1">
          <mxGeometry width="50" height="50" relative="1" as="geometry">
            <mxPoint x="710" y="540" as="sourcePoint" />
            <mxPoint x="610" y="539.6600000000001" as="targetPoint" />
          </mxGeometry>
        </mxCell>
        <mxCell id="dXeJd9fdskiibIoUs9Um-32" value="&lt;i&gt;GET&lt;br&gt;&lt;/i&gt;id" style="rounded=0;whiteSpace=wrap;html=1;" parent="1" vertex="1">
          <mxGeometry x="425" y="564" width="40" height="40" as="geometry" />
        </mxCell>
        <mxCell id="dXeJd9fdskiibIoUs9Um-34" value="" style="endArrow=classic;html=1;rounded=0;exitX=0.5;exitY=0;exitDx=0;exitDy=0;" parent="1" source="dXeJd9fdskiibIoUs9Um-32" edge="1">
          <mxGeometry width="50" height="50" relative="1" as="geometry">
            <mxPoint x="510" y="570" as="sourcePoint" />
            <mxPoint x="430" y="530" as="targetPoint" />
          </mxGeometry>
        </mxCell>
        <mxCell id="dXeJd9fdskiibIoUs9Um-36" value="&lt;i&gt;GET&lt;br&gt;&lt;/i&gt;id" style="rounded=0;whiteSpace=wrap;html=1;" parent="1" vertex="1">
          <mxGeometry x="425" y="680" width="40" height="40" as="geometry" />
        </mxCell>
        <mxCell id="dXeJd9fdskiibIoUs9Um-37" value="" style="endArrow=classic;html=1;rounded=0;exitX=0.5;exitY=1;exitDx=0;exitDy=0;" parent="1" source="dXeJd9fdskiibIoUs9Um-36" edge="1">
          <mxGeometry width="50" height="50" relative="1" as="geometry">
            <mxPoint x="510" y="780" as="sourcePoint" />
            <mxPoint x="420" y="760" as="targetPoint" />
          </mxGeometry>
        </mxCell>
        <mxCell id="dXeJd9fdskiibIoUs9Um-1" value="" style="whiteSpace=wrap;html=1;strokeWidth=3;strokeColor=#009900;movable=1;resizable=1;rotatable=1;deletable=1;editable=1;locked=0;connectable=1;" parent="1" vertex="1">
          <mxGeometry x="100" y="280" width="310" height="530" as="geometry" />
        </mxCell>
        <mxCell id="dXeJd9fdskiibIoUs9Um-2" value="&lt;font size=&quot;1&quot; color=&quot;#009900&quot; style=&quot;&quot;&gt;&lt;b style=&quot;font-size: 20px;&quot;&gt;buy&lt;/b&gt;&lt;/font&gt;" style="text;html=1;strokeColor=none;fillColor=none;align=left;verticalAlign=middle;whiteSpace=wrap;rounded=0;" parent="1" vertex="1">
          <mxGeometry x="112.4" y="290" width="62.00000000000001" height="30" as="geometry" />
        </mxCell>
        <mxCell id="dXeJd9fdskiibIoUs9Um-3" value="&lt;font style=&quot;&quot;&gt;&lt;i&gt;&lt;font style=&quot;font-size: 13px;&quot;&gt;&amp;lt;&amp;lt;table&amp;gt;&amp;gt;&lt;/font&gt;&lt;/i&gt;&lt;br&gt;&lt;span style=&quot;font-size: 15px;&quot;&gt;&lt;b&gt;List of open auctions&lt;br&gt;&lt;/b&gt;&lt;/span&gt;&lt;br&gt;[&lt;i&gt;field:&lt;/i&gt; ID]&lt;br&gt;[&lt;i style=&quot;border-color: var(--border-color);&quot;&gt;field:&lt;/i&gt;&amp;nbsp;Terminates on]&lt;br&gt;[&lt;i style=&quot;border-color: var(--border-color);&quot;&gt;field:&lt;/i&gt;&amp;nbsp;Minimum bid delta]&lt;br&gt;[&lt;i style=&quot;border-color: var(--border-color);&quot;&gt;field:&lt;/i&gt;&amp;nbsp;Creator username]&lt;br&gt;&lt;span style=&quot;border-color: var(--border-color);&quot;&gt;&lt;font style=&quot;font-size: 12px;&quot;&gt;&lt;i&gt;&amp;lt;a href=&quot;...&quot; &amp;gt;&lt;/i&gt;open details&lt;i&gt;&amp;lt;/a&amp;gt;&lt;/i&gt;&lt;/font&gt;&lt;/span&gt;&lt;br&gt;&lt;/font&gt;" style="rounded=1;whiteSpace=wrap;html=1;strokeWidth=3;strokeColor=#FF8000;" parent="1" vertex="1">
          <mxGeometry x="159.42" y="420" width="210.58" height="147" as="geometry" />
        </mxCell>
        <mxCell id="dXeJd9fdskiibIoUs9Um-35" value="&lt;font style=&quot;&quot;&gt;&lt;i style=&quot;font-size: 13px;&quot;&gt;&amp;lt;&amp;lt;table&amp;gt;&amp;gt;&lt;/i&gt;&lt;br&gt;&lt;span style=&quot;font-size: 15px;&quot;&gt;&lt;b&gt;List of auctions&lt;br&gt;won by the user&lt;br&gt;&lt;/b&gt;&lt;/span&gt;&lt;br&gt;[&lt;i&gt;field:&lt;/i&gt;&amp;nbsp;Auction ID]&lt;br&gt;[&lt;i style=&quot;border-color: var(--border-color);&quot;&gt;field:&lt;/i&gt;&amp;nbsp;Auction terminated on]&lt;br&gt;[&lt;i style=&quot;border-color: var(--border-color);&quot;&gt;field:&lt;/i&gt;&amp;nbsp;Auction creator username]&lt;br&gt;[&lt;i style=&quot;border-color: var(--border-color);&quot;&gt;field:&lt;/i&gt;&amp;nbsp;Article name]&lt;br&gt;[&lt;i style=&quot;border-color: var(--border-color);&quot;&gt;field:&lt;/i&gt;&amp;nbsp;Article description]&lt;br&gt;[&lt;i style=&quot;border-color: var(--border-color);&quot;&gt;field:&lt;/i&gt;&amp;nbsp;Article image]&lt;br&gt;&lt;span style=&quot;border-color: var(--border-color);&quot;&gt;&lt;font style=&quot;border-color: var(--border-color);&quot;&gt;&lt;i&gt;&amp;lt;a href=&quot;...&quot; &amp;gt;&lt;/i&gt;open details&lt;i&gt;&amp;lt;/a&amp;gt;&lt;/i&gt;&lt;/font&gt;&lt;/span&gt;&lt;br&gt;&lt;/font&gt;" style="rounded=1;whiteSpace=wrap;html=1;strokeWidth=3;strokeColor=#FF8000;" parent="1" vertex="1">
          <mxGeometry x="159.42" y="590" width="210.58" height="200" as="geometry" />
        </mxCell>
        <mxCell id="dXeJd9fdskiibIoUs9Um-8" value="" style="ellipse;whiteSpace=wrap;html=1;aspect=fixed;strokeWidth=2;fillColor=#6666FF;strokeColor=#6666FF;" parent="1" vertex="1">
          <mxGeometry x="360" y="750" width="20" height="20" as="geometry" />
        </mxCell>
        <mxCell id="dXeJd9fdskiibIoUs9Um-10" value="" style="endArrow=none;html=1;rounded=0;exitX=0.5;exitY=1;exitDx=0;exitDy=0;strokeColor=#6666FF;strokeWidth=2;startArrow=classic;startFill=1;" parent="1" edge="1">
          <mxGeometry width="50" height="50" relative="1" as="geometry">
            <mxPoint x="541" y="564.0000000000001" as="sourcePoint" />
            <mxPoint x="381" y="760" as="targetPoint" />
            <Array as="points">
              <mxPoint x="541" y="760" />
            </Array>
          </mxGeometry>
        </mxCell>
        <mxCell id="T3EsUtSMvEaVMbdLduOL-2" value="" style="endArrow=none;html=1;rounded=0;strokeColor=#6666FF;strokeWidth=2;startArrow=classic;startFill=1;" parent="1" target="dXeJd9fdskiibIoUs9Um-6" edge="1">
          <mxGeometry width="50" height="50" relative="1" as="geometry">
            <mxPoint x="489.8873706864413" y="531.3378879406762" as="sourcePoint" />
            <mxPoint x="360" y="537" as="targetPoint" />
          </mxGeometry>
        </mxCell>
        <mxCell id="dXeJd9fdskiibIoUs9Um-6" value="" style="ellipse;whiteSpace=wrap;html=1;aspect=fixed;strokeWidth=2;fillColor=#6666FF;strokeColor=#6666FF;" parent="1" vertex="1">
          <mxGeometry x="360" y="522" width="20" height="20" as="geometry" />
        </mxCell>
        <mxCell id="zssgHCgY2dahoC3OY2zL-1" value="&lt;font style=&quot;&quot;&gt;&lt;i&gt;&lt;font style=&quot;font-size: 13px;&quot;&gt;&amp;lt;&amp;lt;form href=&quot;buy&quot;&amp;gt;&amp;gt;&lt;/font&gt;&lt;/i&gt;&lt;br&gt;&lt;span style=&quot;font-size: 15px;&quot;&gt;&lt;b&gt;List of open auctions&lt;br&gt;&lt;/b&gt;&lt;/span&gt;&lt;br&gt;[&lt;i&gt;field:&lt;/i&gt;&amp;nbsp;query]&lt;br&gt;&lt;/font&gt;" style="rounded=1;whiteSpace=wrap;html=1;strokeWidth=3;strokeColor=#FF8000;" parent="1" vertex="1">
          <mxGeometry x="159.42" y="330" width="210.58" height="70" as="geometry" />
        </mxCell>
        <mxCell id="zssgHCgY2dahoC3OY2zL-2" value="" style="endArrow=none;html=1;rounded=0;strokeColor=#6666FF;strokeWidth=2;startArrow=classic;startFill=1;entryX=1;entryY=0.5;entryDx=0;entryDy=0;" parent="1" target="zssgHCgY2dahoC3OY2zL-3" edge="1" source="zssgHCgY2dahoC3OY2zL-4">
          <mxGeometry width="50" height="50" relative="1" as="geometry">
            <mxPoint x="480" y="380" as="sourcePoint" />
            <mxPoint x="370" y="547" as="targetPoint" />
          </mxGeometry>
        </mxCell>
        <mxCell id="zssgHCgY2dahoC3OY2zL-3" value="" style="ellipse;whiteSpace=wrap;html=1;aspect=fixed;strokeWidth=2;fillColor=#6666FF;strokeColor=#6666FF;" parent="1" vertex="1">
          <mxGeometry x="360" y="370" width="20" height="20" as="geometry" />
        </mxCell>
        <mxCell id="zssgHCgY2dahoC3OY2zL-4" value="&lt;font style=&quot;&quot;&gt;&lt;i style=&quot;font-size: 13px;&quot;&gt;&amp;lt;&amp;lt;HttpServlet&amp;gt;&amp;gt;&lt;/i&gt;&lt;br&gt;&lt;span style=&quot;font-size: 15px;&quot;&gt;&lt;b&gt;buy&lt;/b&gt;&lt;/span&gt;&lt;br&gt;&lt;/font&gt;" style="shape=parallelogram;perimeter=parallelogramPerimeter;whiteSpace=wrap;html=1;fixedSize=1;strokeColor=#FF00FF;strokeWidth=2;" parent="1" vertex="1">
          <mxGeometry x="480" y="350" width="140" height="60" as="geometry" />
        </mxCell>
        <mxCell id="-gvjDRAsRBkBMAYJu9A7-1" value="&lt;i&gt;GET&lt;br&gt;&lt;/i&gt;q" style="rounded=0;whiteSpace=wrap;html=1;" vertex="1" parent="1">
          <mxGeometry x="425" y="420" width="40" height="40" as="geometry" />
        </mxCell>
        <mxCell id="-gvjDRAsRBkBMAYJu9A7-2" value="" style="endArrow=classic;html=1;rounded=0;exitX=0.5;exitY=0;exitDx=0;exitDy=0;" edge="1" parent="1" source="-gvjDRAsRBkBMAYJu9A7-1">
          <mxGeometry width="50" height="50" relative="1" as="geometry">
            <mxPoint x="520" y="420" as="sourcePoint" />
            <mxPoint x="420" y="380" as="targetPoint" />
          </mxGeometry>
        </mxCell>
        <mxCell id="-gvjDRAsRBkBMAYJu9A7-3" value="" style="endArrow=none;html=1;rounded=0;strokeColor=#6666FF;strokeWidth=2;startArrow=classic;startFill=1;entryX=0.5;entryY=0;entryDx=0;entryDy=0;exitX=1.004;exitY=0.036;exitDx=0;exitDy=0;exitPerimeter=0;" edge="1" parent="1" source="dXeJd9fdskiibIoUs9Um-1" target="zssgHCgY2dahoC3OY2zL-4">
          <mxGeometry width="50" height="50" relative="1" as="geometry">
            <mxPoint x="500" y="390" as="sourcePoint" />
            <mxPoint x="390" y="390" as="targetPoint" />
            <Array as="points">
              <mxPoint x="550" y="299" />
            </Array>
          </mxGeometry>
        </mxCell>
      </root>
    </mxGraphModel>
  </diagram>
</mxfile>
